<?xml version="1.0" encoding="UTF-8"?>
<svg width="164px" height="334px" viewBox="0 0 164 334" version="1.1" xmlns="http://www.w3.org/2000/svg" xmlns:xlink="http://www.w3.org/1999/xlink">
    <!-- Generator: Sketch 41.2 (35397) - http://www.bohemiancoding.com/sketch -->
    <title>logo</title>
    <desc>Created with Sketch.</desc>
    <defs></defs>
    <g id="Page-1" stroke="none" stroke-width="1" fill="none" fill-rule="evenodd">
        <g id="seven-ounce" transform="translate(-638.000000, -345.000000)">
            <g id="logo" transform="translate(638.000000, 345.000000)">
                <path d="M0.7563,5.1406 C16.2613,-1.8084 162.8663,0.4416 163.6163,5.1406 C165.2593,15.4416 134.0133,208.6886 133.5483,251.0736 C133.2003,282.7866 145.0283,290.5276 144.5513,308.7926 C143.8563,335.3956 104.2173,333.4076 81.7513,333.1236 C56.2203,332.7996 20.3023,333.2676 19.1223,308.7346 C18.1893,289.3436 30.4173,279.9806 29.6733,249.7526 C28.6773,209.3326 -3.7837,7.1756 0.7563,5.1406" id="Fill-2" fill-opacity="0.2" fill="#F8F7F0"></path>
                <path d="M19.7879,32.0504 C21.6589,29.8104 143.9629,28.4514 144.5369,32.0504 C145.7959,39.9404 118.9529,222.3864 118.5959,254.8534 C118.3299,279.1454 130.2989,289.0564 129.9339,303.0464 C129.4009,323.4244 99.0379,321.9024 81.8289,321.6844 C62.2729,321.4364 34.7599,321.8384 33.8559,303.0464 C33.1409,288.1934 45.4769,276.5234 44.9069,253.3684 C44.1449,222.4074 17.3449,34.9754 19.7879,32.0504" id="Fill-4" fill="#F5BB00"></path>
                <path d="M19.7879,21.6584 C21.6589,19.4184 143.9629,18.0594 144.5369,21.6584 C145.7959,29.5484 141.7149,62.8864 141.2209,64.3814 C138.0789,73.8874 99.0379,72.1624 81.8289,71.9444 C62.2729,71.6964 24.8639,72.6914 22.8459,65.7984 C22.3199,64.0024 17.3449,24.5834 19.7879,21.6584" id="Fill-6" fill="#F8F7F0"></path>
                <path d="M52.4409,185.8681 C52.9079,190.9671 65.0569,179.2261 64.1859,172.0761 C59.0919,130.2601 53.3919,80.9631 47.6389,29.9611 C42.2049,30.0691 37.0259,30.1931 32.2209,30.3311 C39.7279,85.8041 49.6469,155.3411 52.4409,185.8681" id="Fill-8" fill-opacity="0.2" fill="#F8F7F0"></path>
            </g>
        </g>
    </g>
</svg>